<svg xmlns="http://www.w3.org/2000/svg" viewBox="0 0 435 92" enable-background="new 0 0 435 92"><path fill-rule="evenodd" clip-rule="evenodd" fill="#006BB6" d="M106.2 54.1l-1.9-5.3h-9l-1.8 5.3h-5.2l10.5-26.6h2l10.5 26.6h-5.1zm-6.4-18.5l-3.2 9.7h6.3l-3.1-9.7zM124.5 31.2c-1-.3-1.7-.5-2.3-.5-.8 0-1.6.4-2.2 1.1-.6.7-.9 1.6-.9 2.7v.5h4v3.7h-3.9v15.5h-4.5V38.7H112V35h2.8c.1-2.3.8-4.2 2.1-5.7 1.3-1.4 3-2.2 5-2.2 1.1 0 2.4.2 3.9.7l-1.3 3.4zM128.1 38.6h-2.2V35h2.2v-3.9l4.5-1.6V35h5.3v3.6h-5.3V47c0 1.4.2 2.3.6 2.9.4.6 1.2.8 2.3.8s2.1-.3 3-.9V54c-1 .4-2.5.5-4.4.5-1.9 0-3.4-.5-4.4-1.6-1-1.1-1.5-2.6-1.5-4.6v-9.7h-.1zM159 45.9h-13.7c.1 1.5.6 2.7 1.6 3.6 1 .8 2.3 1.3 3.9 1.3 2 0 3.6-.5 4.6-1.6l1.7 3.4c-1.6 1.3-3.9 1.9-7 1.9-2.9 0-5.2-.9-6.9-2.6-1.7-1.7-2.6-4.1-2.6-7.2 0-3 .9-5.5 2.8-7.3 1.9-1.9 4.1-2.8 6.7-2.8 2.8 0 5 .8 6.7 2.5 1.7 1.7 2.5 3.8 2.5 6.3.1.6 0 1.4-.3 2.5zm-13.5-3.3h9.4c-.3-2.8-1.9-4.2-4.6-4.2-2.6 0-4.2 1.4-4.8 4.2zM174.1 39.2c-.8-.5-1.7-.8-2.6-.8-1 0-2 .5-2.8 1.4-.8.9-1.2 2.1-1.2 3.5v10.9H163V35h4.5v1.8c1.3-1.4 2.9-2.1 5-2.1 1.5 0 2.7.2 3.5.7l-1.9 3.8zM177.4 52.9l1.6-3.6c1.3 1.1 2.8 1.6 4.5 1.6 1.7 0 2.6-.6 2.6-1.9 0-.7-.3-1.3-.8-1.8s-1.5-1-3.1-1.6c-3.3-1.4-5-3.3-5-5.8 0-1.7.6-3 1.9-3.9 1.3-.9 2.9-1.4 4.8-1.4 2 0 3.9.4 5.6 1.3l-1.3 3.5c-1-.8-2.3-1.3-4.1-1.3-1.6 0-2.3.6-2.3 1.9 0 .5.3.9.8 1.3s1.6.9 3.3 1.6c1.7.7 2.9 1.5 3.6 2.4.7.9 1.1 2.1 1.1 3.4 0 1.8-.7 3.2-2 4.2s-3.1 1.5-5.4 1.5c-1.3 0-2.3-.1-3.1-.3-.5 0-1.5-.4-2.7-1.1zM209.4 36.5l-1.9 3.3c-1.1-1-2.5-1.5-4.2-1.5-1.7 0-3 .6-4 1.7s-1.5 2.7-1.5 4.7c0 4 1.9 6 5.7 6 1.7 0 3.1-.5 4.4-1.6l1.6 3.5c-1.3.8-2.4 1.3-3.4 1.5-1 .2-2.1.3-3.4.3-3 0-5.3-.9-7-2.6-1.7-1.7-2.6-4.1-2.6-7.2 0-3 .9-5.5 2.8-7.3 1.9-1.9 4.4-2.8 7.7-2.8 2.3.1 4.2.8 5.8 2zM225.6 54.1V42.3c0-1.2-.4-2.1-1.1-2.8-.7-.7-1.7-1.1-2.9-1.1-.7 0-1.5.2-2.2.6-.8.4-1.3.9-1.6 1.4v13.8h-4.5V27.8l4.5-1.1v9.4c1.2-1.1 2.7-1.6 4.8-1.6 2.4 0 4.3.7 5.6 2 1.3 1.3 2 3.2 2 5.7V54h-4.6v.1zM233.6 44.5c0-2.9.8-5.3 2.5-7.1 1.7-1.8 3.9-2.8 6.7-2.8 2.9 0 5.2.9 6.8 2.6 1.6 1.8 2.4 4.2 2.4 7.2 0 3.1-.8 5.5-2.5 7.3-1.6 1.8-3.9 2.7-6.7 2.7-2.9 0-5.2-.9-6.8-2.7-1.6-1.7-2.4-4.2-2.4-7.2zm4.7 0c0 4.2 1.5 6.3 4.6 6.3 1.4 0 2.5-.5 3.3-1.6.8-1.1 1.2-2.7 1.2-4.7 0-4.2-1.5-6.2-4.5-6.2-1.4 0-2.5.5-3.3 1.6-.9 1.1-1.3 2.7-1.3 4.6zM254.4 44.5c0-2.9.8-5.3 2.5-7.1 1.7-1.8 3.9-2.8 6.7-2.8 2.9 0 5.2.9 6.8 2.6 1.6 1.8 2.4 4.2 2.4 7.2 0 3.1-.8 5.5-2.5 7.3-1.6 1.8-3.9 2.7-6.7 2.7-2.9 0-5.2-.9-6.8-2.7-1.6-1.7-2.4-4.2-2.4-7.2zm4.6 0c0 4.2 1.5 6.3 4.6 6.3 1.4 0 2.5-.5 3.3-1.6.8-1.1 1.2-2.7 1.2-4.7 0-4.2-1.5-6.2-4.5-6.2-1.4 0-2.5.5-3.3 1.6-.9 1.1-1.3 2.7-1.3 4.6zM277.1 27.8l4.5-1.1v21.5c0 2.4.7 3.8 2.1 4.2-.7 1.3-1.9 2-3.5 2-2 0-3-1.4-3-4.2V27.8h-.1zM311.8 54.1l-1.9-5.3h-9l-1.8 5.3h-5.2l10.4-26.6h2l10.5 26.6h-5zm-6.4-18.5l-3.2 9.7h6.3l-3.1-9.7zM320.2 27.8l4.5-1.1v21.5c0 2.4.7 3.8 2.1 4.2-.7 1.3-1.9 2-3.5 2-2 0-3-1.4-3-4.2V27.8h-.1zM331 27.8l4.5-1.1v21.5c0 2.4.7 3.8 2.1 4.2-.7 1.3-1.9 2-3.5 2-2 0-3-1.4-3-4.2V27.8h-.1zM344.5 27.6c.7 0 1.3.3 1.8.8s.8 1.1.8 1.8-.3 1.3-.8 1.8-1.1.8-1.8.8-1.3-.3-1.8-.8-.8-1.1-.8-1.8.2-1.3.8-1.8c.5-.6 1.1-.8 1.8-.8zm-2.3 26.5V38.7h-2.5V35h7v19.2h-4.5v-.1zM362.6 52.2c-.4.7-1.1 1.2-2.1 1.6-1 .4-2.1.6-3.2.6-2.1 0-3.7-.5-4.9-1.6-1.2-1-1.8-2.5-1.8-4.4 0-2.2.8-4 2.5-5.2 1.7-1.3 4-1.9 7.1-1.9.5 0 1.1.1 1.9.3 0-2.3-1.4-3.4-4.3-3.4-1.7 0-3.1.3-4.2.8l-1-3.5c1.5-.7 3.4-1.1 5.5-1.1 2.9 0 5.1.7 6.4 2 1.4 1.3 2 3.9 2 7.6v4.1c0 2.6.5 4.2 1.5 4.8-.4.6-.8 1-1.2 1.2-.5.1-1 .2-1.6.2-.6 0-1.2-.2-1.7-.7-.3-.3-.7-.8-.9-1.4zm-.4-7.1c-.8-.2-1.3-.2-1.7-.2-3.5 0-5.3 1.2-5.3 3.5 0 1.7 1 2.6 3 2.6 2.7 0 4-1.3 4-4v-1.9zM383.8 54.1v-11c0-1.6-.3-2.8-.9-3.6-.6-.8-1.7-1.1-3.1-1.1-.7 0-1.4.2-2.1.6-.7.4-1.3.8-1.7 1.4v13.9h-4.5V35h3.2l.8 1.8c1.2-1.4 3-2.1 5.4-2.1 2.3 0 4.1.7 5.4 2 1.3 1.4 2 3.3 2 5.7v11.8h-4.5v-.1zM408.2 36.5l-1.9 3.3c-1-1-2.5-1.5-4.2-1.5-1.7 0-3 .6-4 1.7s-1.5 2.7-1.5 4.7c0 4 1.9 6 5.7 6 1.7 0 3.1-.5 4.4-1.6l1.6 3.5c-1.3.8-2.4 1.3-3.4 1.5-1 .2-2.1.3-3.4.3-3 0-5.3-.9-7-2.6-1.7-1.7-2.6-4.1-2.6-7.2 0-3 .9-5.5 2.8-7.3 1.9-1.9 4.4-2.8 7.7-2.8 2.2.1 4.1.8 5.8 2zM429 45.9h-13.7c.1 1.5.6 2.7 1.6 3.6 1 .8 2.3 1.3 3.9 1.3 2 0 3.6-.5 4.6-1.6l1.7 3.4c-1.6 1.3-3.9 1.9-7 1.9-2.9 0-5.2-.9-6.9-2.6-1.7-1.7-2.6-4.1-2.6-7.2 0-3 .9-5.5 2.8-7.3 1.9-1.9 4.1-2.8 6.7-2.8 2.8 0 5 .8 6.7 2.5 1.7 1.7 2.5 3.8 2.5 6.3.1.6-.1 1.4-.3 2.5zm-13.5-3.3h9.4c-.3-2.8-1.9-4.2-4.6-4.2-2.6 0-4.2 1.4-4.8 4.2zM39.5 5C58.5 5 74 20.5 74 39.5S58.5 74 39.5 74c-5.1 0-10-1.1-14.3-3.1L7 86.1l-.4-.1-.3-.2-.2-.3v-.4L22 69.2c-10.2-6-17-17.1-17-29.7C5 20.5 20.5 5 39.5 5z"/><path fill-rule="evenodd" clip-rule="evenodd" fill="#fff" d="M38.2 11.7l-.3.8c-1-.3-2-.6-2.9-.9l.3-.8c-.1.1 2.6 1 2.9.9zm-.4 1.3l-.3 1h-.1c-.9-.3-2-.5-2.8-.9-.1 0 0-.2 0-.2l.3-.9v.1c.9.4 1.9.7 2.9.9z"/><path fill="#fff" d="M38.2 11.1l.5-1.5-2.4-.8h-.1l-.5 1.6c.6.2 1.8.6 2.5.7z"/><path fill-rule="evenodd" clip-rule="evenodd" fill="#fff" d="M21.5 61.8L20 65.3l.7-3.7c.3.2.5.3.8.2zM21.2 57l-.3 3.8c0 .2.8.5.9.4l1.9-3.2s-.2.3-.4.2c-.2-.1-.2-.4-.2-.4l-.5.4s-.2 0-.4-.1c-.2 0-.3-.1-.3-.1v-.8l-.4.6-.2-.1-.1-.7zM25.2 70.8c-1.1-.5-2.1-1.1-3.2-1.7l4.6-4.6c.8-.7 1.6-1.1 2.6-1.5.8.4 1.3 1 1.7 1.8-.5.9-.8 1.7-1.6 2.5l-4.1 3.5zM41.9 56.4c1.3 0 2-.2 2.9-.5 5.6-1.9 10.1-4.8 12.7-8.3 2.6-3.3 4-6.9 1-9.2-3.7-3-11-1.5-17.1-.9-4.7.5-8.3.5-10.3-1.1-1.1-.9-2-2.7-.8-4.4 1.3-1.9 3.4-3.2 6-4.1 3.1-1.1 6.5-1.4 9.7-1.5 1.4-.8 2.5-2 2.7-2.8-.6-.6-.9-.7-1.8-1.2-4.3.7-7.7 1.6-10.7 2.6-4.4 1.5-8 3.7-10.4 6.8-2.4 3-3 6.3-.8 8.1 2.3 1.9 6.4 2.4 15 1.3 7.4-.9 10.5-.7 12.3.8 1.9 1.5 1.8 3.6 0 5.8-1.7 2-4.7 3.5-8.6 4.7-.3.1-.7 0-.9.1-2 .2-4.3.4-6.1 1.4l-.3.2-.3.3c-1.1 1.2-1.7 3.2-2.1 4.7l-4.3 3.3c.9.4 1.4 1 1.7 1.7l3.8-3.5.9-.2c1.2-.5 2.5-.8 3.6-1.6l.3-.2.3-.2c.8-.7 1.2-1.5 1.6-2.1z"/><path fill-rule="evenodd" clip-rule="evenodd" fill="#006BB6" d="M34.9 59c.5-1.8 1.2-4.1 3.1-4.8 1.8-.7 3.8-.8 5.7-1l-2.6 1.2 2.2-.2c-.8.5-1.2.9-1.8 1.6l-1.2 1.5c-1.2 1.5-3 2-4.8 2.7 0-.2-.6-.7-.6-1z"/><path fill-rule="evenodd" clip-rule="evenodd" fill="#fff" d="M39.9 8.8l.4-.1c1.1-.3 2.1 0 2.4.9l3.5 11.9H46l-.4.1-.4.1-.4.1-.4.1-.4.1-.4.1-.4.1-.2-.2-.4.1-.4.1H42l-.3.1-3.2-10.9.6-2c.1-.4.1-.3.3-.4l.5-.2zm7.9 17.7l1.1 3.9c.6 1.9.7 3.3.9 4.5 0 .2.1.4.1.6h-1.6l-.6.1-.6.1-.6.1-.6.1c-.1-.2-.2-.4-.3-.7-.2-.5-.4-1-.7-1.7-.2-.4-.5-1.2-.5-1.3l-1.3-4.5H46.3l.8-.5.7-.7zm3.7 16.1c.1.3.1.7.2 1 0 .2.3 1.2.7 2.3l-.2.3-.2.3-.3.3-.3.3-.4.6-.3.3-.1.1c-.5-1.8-1.1-3.6-1.2-3.9-.3-.9-.6-1.6-.9-2.3h1.3l.2.1.2.1.2.1.2.1.2.1.2.1.2.1.2.1.1-.1zm2.7 9.7l1.4 5.1c-.5-.4-1.6-.3-2.1.5l-1.2-4.3.2-.1.4-.3.4-.3.4-.3.4-.3h.1zm1.7 5.7l.5 1.6.4 1.3.3.5c-.4 0-.9 0-1.5.2-.4.1-.8.3-1.1.5l-.4-1.9-.5-1.6c.7-.8 1.9-1 2.3-.6zm1.5 4c.9.1 1.3.4.8 1.1-.6.8-2.1 1.1-3 1.2-1.3-.1-1.6-.6-.5-1.5.3-.2.8-.4 1.3-.6.5-.1 1-.2 1.4-.2zM24.4 56.1c-.2.2-.4.9-.6 1-.4.4-.3-.2-.2-1.4-.2.5-.5 1.1-.8 1.5-.1.1-.3-.1-.5-.1 0-.6.1-1.2.2-1.9l-.8 1.5h-.1l-.1-.9.1-.7c1.5-4.6 2.7-8.8 4.2-13.6h.1l.3.2.3.1.3.1.4.1.4.1.4.1.4.1h.2l-4.2 13.8zm6.1-29.7c1.3-4.3 2.6-8.4 3.9-12.7.7.3 2.7.9 2.8.9l-3.1 10-.1.1-.4.2-.4.1-.4.2-.4.2-.4.2-.4.2-.3.2-.4.2-.4.2zm1.3 5.5l-.8 2.5v-1.2l.1-.2.1-.2.2-.2.2-.3.2-.4z"/></svg>