<?xml version="1.0" encoding="utf-8"?>
<!-- Generator: Adobe Illustrator 18.1.1, SVG Export Plug-In . SVG Version: 6.00 Build 0)  -->
<svg version="1.1" id="Layer_1" xmlns="http://www.w3.org/2000/svg" xmlns:xlink="http://www.w3.org/1999/xlink" x="0px" y="0px"
	 viewBox="0 0 435 92" enable-background="new 0 0 435 92" xml:space="preserve">
<g>
	<path fill-rule="evenodd" clip-rule="evenodd" fill="#006BB6" d="M106.2,54.1l-1.9-5.3h-9l-1.8,5.3h-5.2l10.5-26.6h2l10.5,26.6
		H106.2L106.2,54.1z M99.8,35.6l-3.2,9.7h6.3L99.8,35.6L99.8,35.6z"/>
	<path fill-rule="evenodd" clip-rule="evenodd" fill="#006BB6" d="M124.5,31.2c-1-0.3-1.7-0.5-2.3-0.5c-0.8,0-1.6,0.4-2.2,1.1
		c-0.6,0.7-0.9,1.6-0.9,2.7c0,0.2,0,0.3,0,0.5h4v3.7h-3.9v15.5h-4.5V38.7H112V35h2.8c0.1-2.3,0.8-4.2,2.1-5.7c1.3-1.4,3-2.2,5-2.2
		c1.1,0,2.4,0.2,3.9,0.7L124.5,31.2L124.5,31.2z"/>
	<path fill-rule="evenodd" clip-rule="evenodd" fill="#006BB6" d="M128.1,38.6h-2.2V35h2.2v-3.9l4.5-1.6V35h5.3v3.6h-5.3V47
		c0,1.4,0.2,2.3,0.6,2.9c0.4,0.6,1.2,0.8,2.3,0.8s2.1-0.3,3-0.9V54c-1,0.4-2.5,0.5-4.4,0.5c-1.9,0-3.4-0.5-4.4-1.6
		c-1-1.1-1.5-2.6-1.5-4.6V38.6L128.1,38.6z"/>
	<path fill-rule="evenodd" clip-rule="evenodd" fill="#006BB6" d="M159,45.9h-13.7c0.1,1.5,0.6,2.7,1.6,3.6c1,0.8,2.3,1.3,3.9,1.3
		c2,0,3.6-0.5,4.6-1.6l1.7,3.4c-1.6,1.3-3.9,1.9-7,1.9c-2.9,0-5.2-0.9-6.9-2.6c-1.7-1.7-2.6-4.1-2.6-7.2c0-3,0.9-5.5,2.8-7.3
		c1.9-1.9,4.1-2.8,6.7-2.8c2.8,0,5,0.8,6.7,2.5c1.7,1.7,2.5,3.8,2.5,6.3C159.4,44,159.3,44.8,159,45.9L159,45.9z M145.5,42.6h9.4
		c-0.3-2.8-1.9-4.2-4.6-4.2C147.7,38.4,146.1,39.8,145.5,42.6L145.5,42.6z"/>
	<path fill-rule="evenodd" clip-rule="evenodd" fill="#006BB6" d="M174.1,39.2c-0.8-0.5-1.7-0.8-2.6-0.8c-1,0-2,0.5-2.8,1.4
		c-0.8,0.9-1.2,2.1-1.2,3.5v10.9H163V35h4.5v1.8c1.3-1.4,2.9-2.1,5-2.1c1.5,0,2.7,0.2,3.5,0.7L174.1,39.2L174.1,39.2z"/>
	<path fill-rule="evenodd" clip-rule="evenodd" fill="#006BB6" d="M177.4,52.9l1.6-3.6c1.3,1.1,2.8,1.6,4.5,1.6
		c1.7,0,2.6-0.6,2.6-1.9c0-0.7-0.3-1.3-0.8-1.8c-0.5-0.5-1.5-1-3.1-1.6c-3.3-1.4-5-3.3-5-5.8c0-1.7,0.6-3,1.9-3.9
		c1.3-0.9,2.9-1.4,4.8-1.4c2,0,3.9,0.4,5.6,1.3l-1.3,3.5c-1-0.8-2.3-1.3-4.1-1.3c-1.6,0-2.3,0.6-2.3,1.9c0,0.5,0.3,0.9,0.8,1.3
		c0.5,0.4,1.6,0.9,3.3,1.6c1.7,0.7,2.9,1.5,3.6,2.4c0.7,0.9,1.1,2.1,1.1,3.4c0,1.8-0.7,3.2-2,4.2c-1.3,1-3.1,1.5-5.4,1.5
		c-1.3,0-2.3-0.1-3.1-0.3C179.6,54,178.6,53.6,177.4,52.9L177.4,52.9z"/>
	<path fill-rule="evenodd" clip-rule="evenodd" fill="#006BB6" d="M209.4,36.5l-1.9,3.3c-1.1-1-2.5-1.5-4.2-1.5c-1.7,0-3,0.6-4,1.7
		c-1,1.1-1.5,2.7-1.5,4.7c0,4,1.9,6,5.7,6c1.7,0,3.1-0.5,4.4-1.6l1.6,3.5c-1.3,0.8-2.4,1.3-3.4,1.5c-1,0.2-2.1,0.3-3.4,0.3
		c-3,0-5.3-0.9-7-2.6c-1.7-1.7-2.6-4.1-2.6-7.2c0-3,0.9-5.5,2.8-7.3c1.9-1.9,4.4-2.8,7.7-2.8C205.9,34.6,207.8,35.3,209.4,36.5
		L209.4,36.5z"/>
	<path fill-rule="evenodd" clip-rule="evenodd" fill="#006BB6" d="M225.6,54.1V42.3c0-1.2-0.4-2.1-1.1-2.8c-0.7-0.7-1.7-1.1-2.9-1.1
		c-0.7,0-1.5,0.2-2.2,0.6c-0.8,0.4-1.3,0.9-1.6,1.4v13.8h-4.5V27.8l4.5-1.1v9.4c1.2-1.1,2.7-1.6,4.8-1.6c2.4,0,4.3,0.7,5.6,2
		c1.3,1.3,2,3.2,2,5.7v11.8H225.6L225.6,54.1z"/>
	<path fill-rule="evenodd" clip-rule="evenodd" fill="#006BB6" d="M233.6,44.5c0-2.9,0.8-5.3,2.5-7.1c1.7-1.8,3.9-2.8,6.7-2.8
		c2.9,0,5.2,0.9,6.8,2.6c1.6,1.8,2.4,4.2,2.4,7.2c0,3.1-0.8,5.5-2.5,7.3c-1.6,1.8-3.9,2.7-6.7,2.7c-2.9,0-5.2-0.9-6.8-2.7
		C234.4,50,233.6,47.5,233.6,44.5L233.6,44.5z M238.3,44.5c0,4.2,1.5,6.3,4.6,6.3c1.4,0,2.5-0.5,3.3-1.6c0.8-1.1,1.2-2.7,1.2-4.7
		c0-4.2-1.5-6.2-4.5-6.2c-1.4,0-2.5,0.5-3.3,1.6C238.7,41,238.3,42.6,238.3,44.5L238.3,44.5z"/>
	<path fill-rule="evenodd" clip-rule="evenodd" fill="#006BB6" d="M254.4,44.5c0-2.9,0.8-5.3,2.5-7.1c1.7-1.8,3.9-2.8,6.7-2.8
		c2.9,0,5.2,0.9,6.8,2.6c1.6,1.8,2.4,4.2,2.4,7.2c0,3.1-0.8,5.5-2.5,7.3c-1.6,1.8-3.9,2.7-6.7,2.7c-2.9,0-5.2-0.9-6.8-2.7
		C255.2,50,254.4,47.5,254.4,44.5L254.4,44.5z M259,44.5c0,4.2,1.5,6.3,4.6,6.3c1.4,0,2.5-0.5,3.3-1.6c0.8-1.1,1.2-2.7,1.2-4.7
		c0-4.2-1.5-6.2-4.5-6.2c-1.4,0-2.5,0.5-3.3,1.6C259.4,41,259,42.6,259,44.5L259,44.5z"/>
	<path fill-rule="evenodd" clip-rule="evenodd" fill="#006BB6" d="M277.1,27.8l4.5-1.1v21.5c0,2.4,0.7,3.8,2.1,4.2
		c-0.7,1.3-1.9,2-3.5,2c-2,0-3-1.4-3-4.2V27.8L277.1,27.8z"/>
	<path fill-rule="evenodd" clip-rule="evenodd" fill="#006BB6" d="M311.8,54.1l-1.9-5.3h-9l-1.8,5.3h-5.2l10.4-26.6h2l10.5,26.6
		H311.8L311.8,54.1z M305.4,35.6l-3.2,9.7h6.3L305.4,35.6L305.4,35.6z"/>
	<path fill-rule="evenodd" clip-rule="evenodd" fill="#006BB6" d="M320.2,27.8l4.5-1.1v21.5c0,2.4,0.7,3.8,2.1,4.2
		c-0.7,1.3-1.9,2-3.5,2c-2,0-3-1.4-3-4.2V27.8L320.2,27.8z"/>
	<path fill-rule="evenodd" clip-rule="evenodd" fill="#006BB6" d="M331,27.8l4.5-1.1v21.5c0,2.4,0.7,3.8,2.1,4.2
		c-0.7,1.3-1.9,2-3.5,2c-2,0-3-1.4-3-4.2V27.8L331,27.8z"/>
	<path fill-rule="evenodd" clip-rule="evenodd" fill="#006BB6" d="M344.5,27.6c0.7,0,1.3,0.3,1.8,0.8c0.5,0.5,0.8,1.1,0.8,1.8
		c0,0.7-0.3,1.3-0.8,1.8c-0.5,0.5-1.1,0.8-1.8,0.8c-0.7,0-1.3-0.3-1.8-0.8c-0.5-0.5-0.8-1.1-0.8-1.8c0-0.7,0.2-1.3,0.8-1.8
		C343.2,27.8,343.8,27.6,344.5,27.6L344.5,27.6z M342.2,54.1V38.7h-2.5V35h7v19.2H342.2L342.2,54.1z"/>
	<path fill-rule="evenodd" clip-rule="evenodd" fill="#006BB6" d="M362.6,52.2c-0.4,0.7-1.1,1.2-2.1,1.6c-1,0.4-2.1,0.6-3.2,0.6
		c-2.1,0-3.7-0.5-4.9-1.6c-1.2-1-1.8-2.5-1.8-4.4c0-2.2,0.8-4,2.5-5.2c1.7-1.3,4-1.9,7.1-1.9c0.5,0,1.1,0.1,1.9,0.3
		c0-2.3-1.4-3.4-4.3-3.4c-1.7,0-3.1,0.3-4.2,0.8l-1-3.5c1.5-0.7,3.4-1.1,5.5-1.1c2.9,0,5.1,0.7,6.4,2c1.4,1.3,2,3.9,2,7.6v4.1
		c0,2.6,0.5,4.2,1.5,4.8c-0.4,0.6-0.8,1-1.2,1.2c-0.5,0.1-1,0.2-1.6,0.2c-0.6,0-1.2-0.2-1.7-0.7C363.2,53.3,362.8,52.8,362.6,52.2
		L362.6,52.2z M362.2,45.1c-0.8-0.2-1.3-0.2-1.7-0.2c-3.5,0-5.3,1.2-5.3,3.5c0,1.7,1,2.6,3,2.6c2.7,0,4-1.3,4-4V45.1L362.2,45.1z"/>
	<path fill-rule="evenodd" clip-rule="evenodd" fill="#006BB6" d="M383.8,54.1V43.1c0-1.6-0.3-2.8-0.9-3.6c-0.6-0.8-1.7-1.1-3.1-1.1
		c-0.7,0-1.4,0.2-2.1,0.6c-0.7,0.4-1.3,0.8-1.7,1.4v13.9h-4.5V35h3.2l0.8,1.8c1.2-1.4,3-2.1,5.4-2.1c2.3,0,4.1,0.7,5.4,2
		c1.3,1.4,2,3.3,2,5.7v11.8H383.8L383.8,54.1z"/>
	<path fill-rule="evenodd" clip-rule="evenodd" fill="#006BB6" d="M408.2,36.5l-1.9,3.3c-1-1-2.5-1.5-4.2-1.5c-1.7,0-3,0.6-4,1.7
		c-1,1.1-1.5,2.7-1.5,4.7c0,4,1.9,6,5.7,6c1.7,0,3.1-0.5,4.4-1.6l1.6,3.5c-1.3,0.8-2.4,1.3-3.4,1.5c-1,0.2-2.1,0.3-3.4,0.3
		c-3,0-5.3-0.9-7-2.6c-1.7-1.7-2.6-4.1-2.6-7.2c0-3,0.9-5.5,2.8-7.3c1.9-1.9,4.4-2.8,7.7-2.8C404.6,34.6,406.5,35.3,408.2,36.5
		L408.2,36.5z"/>
	<path fill-rule="evenodd" clip-rule="evenodd" fill="#006BB6" d="M429,45.9h-13.7c0.1,1.5,0.6,2.7,1.6,3.6c1,0.8,2.3,1.3,3.9,1.3
		c2,0,3.6-0.5,4.6-1.6l1.7,3.4c-1.6,1.3-3.9,1.9-7,1.9c-2.9,0-5.2-0.9-6.9-2.6c-1.7-1.7-2.6-4.1-2.6-7.2c0-3,0.9-5.5,2.8-7.3
		c1.9-1.9,4.1-2.8,6.7-2.8c2.8,0,5,0.8,6.7,2.5c1.7,1.7,2.5,3.8,2.5,6.3C429.4,44,429.2,44.8,429,45.9L429,45.9z M415.5,42.6h9.4
		c-0.3-2.8-1.9-4.2-4.6-4.2C417.7,38.4,416.1,39.8,415.5,42.6L415.5,42.6z"/>
	<path fill-rule="evenodd" clip-rule="evenodd" fill="#006BB6" d="M39.5,5C58.5,5,74,20.5,74,39.5C74,58.5,58.5,74,39.5,74
		c-5.1,0-10-1.1-14.3-3.1L7,86.1l0,0L6.6,86l-0.3-0.2l-0.2-0.3l0-0.4L22,69.2c-10.2-6-17-17.1-17-29.7C5,20.5,20.5,5,39.5,5L39.5,5z
		"/>
	<path fill-rule="evenodd" clip-rule="evenodd" fill="#FFFFFF" d="M38.2,11.7l-0.3,0.8c-1-0.3-2-0.6-2.9-0.9l0,0l0.3-0.8
		C35.2,10.9,37.9,11.8,38.2,11.7L38.2,11.7z M37.8,13l-0.3,1l-0.1,0c-0.9-0.3-2-0.5-2.8-0.9c-0.1,0,0-0.2,0-0.2l0.3-0.9l0,0.1
		C35.8,12.5,36.8,12.8,37.8,13L37.8,13z"/>
	<path fill="#FFFFFF" d="M38.2,11.1l0.5-1.5c0,0,0,0,0,0v0c0,0,0,0,0,0l0,0l0,0l0,0c0,0,0,0,0,0c0,0,0,0,0,0c0,0,0,0,0,0l-2.4-0.8
		l0,0c0,0-0.1,0-0.1,0c0,0,0,0,0,0c0,0,0,0,0,0c0,0,0,0,0,0l-0.5,1.6C36.3,10.6,37.5,11,38.2,11.1L38.2,11.1z"/>
	<path fill-rule="evenodd" clip-rule="evenodd" fill="#FFFFFF" d="M21.5,61.8L20,65.3l0.7-3.7C21,61.8,21.2,61.9,21.5,61.8
		L21.5,61.8z"/>
	<path fill-rule="evenodd" clip-rule="evenodd" fill="#FFFFFF" d="M21.2,57l-0.3,3.8c0,0.2,0.8,0.5,0.9,0.4l1.9-3.2
		c0,0-0.2,0.3-0.4,0.2c-0.2-0.1-0.2-0.4-0.2-0.4l-0.5,0.4c0,0-0.2,0-0.4-0.1c-0.2,0-0.3-0.1-0.3-0.1l0-0.8l-0.4,0.6l-0.2-0.1
		L21.2,57L21.2,57z"/>
	<path fill-rule="evenodd" clip-rule="evenodd" fill="#FFFFFF" d="M25.2,70.8c-1.1-0.5-2.1-1.1-3.2-1.7c1.5-1.5,3.1-3.1,4.6-4.6
		c0.8-0.7,1.6-1.1,2.6-1.5c0.8,0.4,1.3,1,1.7,1.8c-0.5,0.9-0.8,1.7-1.6,2.5L25.2,70.8L25.2,70.8z"/>
	<path fill-rule="evenodd" clip-rule="evenodd" fill="#FFFFFF" d="M41.9,56.4c1.3,0,2-0.2,2.9-0.5c5.6-1.9,10.1-4.8,12.7-8.3
		c2.6-3.3,4-6.9,1-9.2c-3.7-3-11-1.5-17.1-0.9c-4.7,0.5-8.3,0.5-10.3-1.1c-1.1-0.9-2-2.7-0.8-4.4c1.3-1.9,3.4-3.2,6-4.1
		c3.1-1.1,6.5-1.4,9.7-1.5c1.4-0.8,2.5-2,2.7-2.8c-0.6-0.6-0.9-0.7-1.8-1.2c-4.3,0.7-7.7,1.6-10.7,2.6c-4.4,1.5-8,3.7-10.4,6.8
		c-2.4,3-3,6.3-0.8,8.1c2.3,1.9,6.4,2.4,15,1.3c7.4-0.9,10.5-0.7,12.3,0.8c1.9,1.5,1.8,3.6,0,5.8c-1.7,2-4.7,3.5-8.6,4.7
		c-0.3,0.1-0.7,0-0.9,0.1c-2,0.2-4.3,0.4-6.1,1.4l-0.3,0.2l-0.3,0.3c-1.1,1.2-1.7,3.2-2.1,4.7l-4.3,3.3l0,0c0.9,0.4,1.4,1,1.7,1.7
		l3.8-3.5l0.9-0.2c1.2-0.5,2.5-0.8,3.6-1.6l0.3-0.2l0.3-0.2C41.1,57.8,41.5,57,41.9,56.4L41.9,56.4z"/>
	<path fill-rule="evenodd" clip-rule="evenodd" fill="#006BB6" d="M34.9,59c0.5-1.8,1.2-4.1,3.1-4.8c1.8-0.7,3.8-0.8,5.7-1l-2.6,1.2
		l2.2-0.2c-0.8,0.5-1.2,0.9-1.8,1.6c-0.4,0.5-0.8,1-1.2,1.5c-1.2,1.5-3,2-4.8,2.7C35.5,59.8,34.9,59.3,34.9,59L34.9,59z"/>
	<path fill-rule="evenodd" clip-rule="evenodd" fill="#FFFFFF" d="M39.9,8.8l0.4-0.1c1.1-0.3,2.1,0,2.4,0.9l3.5,11.9l-0.2,0
		l-0.4,0.1l-0.4,0.1l-0.4,0.1l-0.4,0.1l-0.4,0.1l-0.4,0.1l-0.4,0.1L43,22l-0.4,0.1l-0.4,0.1L42,22.2l-0.3,0.1l-3.2-10.9l0.6-2
		c0,0,0,0,0,0l0,0c0,0,0,0,0,0v0v0v0c0,0,0,0,0,0c0,0,0,0,0,0c0,0,0,0,0,0C39.2,9,39.2,9.1,39.4,9L39.9,8.8L39.9,8.8z M47.8,26.5
		l1.1,3.9c0.6,1.9,0.7,3.3,0.9,4.5c0,0.2,0.1,0.4,0.1,0.6l-0.4,0l-0.6,0l-0.6,0l-0.6,0.1l-0.6,0.1l-0.6,0.1l-0.6,0.1l0,0
		c-0.1-0.2-0.2-0.4-0.3-0.7c-0.2-0.5-0.4-1-0.7-1.7c-0.2-0.4-0.5-1.2-0.5-1.3l-1.3-4.5l0.2,0l0.3,0l0.3,0l0.3,0l0.3,0l0.3,0l0.3,0
		l0.3,0l0.3,0l0.6,0l0.8-0.5L47.8,26.5L47.8,26.5L47.8,26.5z M51.5,42.6c0.1,0.3,0.1,0.7,0.2,1c0,0.2,0.3,1.2,0.7,2.3l0,0l-0.2,0.3
		l-0.2,0.3l-0.3,0.3l-0.3,0.3L51,47.7L50.7,48l-0.1,0.1c-0.5-1.8-1.1-3.6-1.2-3.9c-0.3-0.9-0.6-1.6-0.9-2.3l0.1,0l0.3,0l0.3,0l0.3,0
		l0.3,0L50,42l0.2,0.1l0.2,0.1l0.2,0.1l0.2,0.1l0.2,0.1l0.2,0.1l0.2,0.1L51.5,42.6L51.5,42.6z M54.2,52.3l1.4,5.1
		c-0.5-0.4-1.6-0.3-2.1,0.5l-1.2-4.3l0.2-0.1l0.4-0.3l0.4-0.3l0.4-0.3l0.4-0.3L54.2,52.3L54.2,52.3z M55.9,58l0.5,1.6l0.4,1.3
		l0.3,0.5c-0.4,0-0.9,0-1.5,0.2c-0.4,0.1-0.8,0.3-1.1,0.5l-0.4-1.9l-0.5-1.6C54.3,57.8,55.5,57.6,55.9,58L55.9,58z M57.4,62L57.4,62
		c0.9,0.1,1.3,0.4,0.8,1.1c-0.6,0.8-2.1,1.1-3,1.2c-1.3-0.1-1.6-0.6-0.5-1.5l0,0c0.3-0.2,0.8-0.4,1.3-0.6C56.5,62.1,57,62,57.4,62
		L57.4,62z"/>
	<path fill-rule="evenodd" clip-rule="evenodd" fill="#FFFFFF" d="M24.4,56.1c-0.2,0.2-0.4,0.9-0.6,1c-0.4,0.4-0.3-0.2-0.2-1.4
		c-0.2,0.5-0.5,1.1-0.8,1.5c-0.1,0.1-0.3-0.1-0.5-0.1c0-0.6,0.1-1.2,0.2-1.9l-0.8,1.5l-0.1,0l-0.1-0.9l0.1-0.7
		c1.5-4.6,2.7-8.8,4.2-13.6l0.1,0l0.3,0.2l0.3,0.1l0.3,0.1l0.4,0.1l0.4,0.1l0.4,0.1l0.4,0.1l0.2,0L24.4,56.1L24.4,56.1z M30.5,26.4
		c1.3-4.3,2.6-8.4,3.9-12.7c0.7,0.3,2.7,0.9,2.8,0.9l-3.1,10L34,24.7l-0.4,0.2L33.2,25l-0.4,0.2l-0.4,0.2L32,25.6l-0.4,0.2L31.3,26
		l-0.4,0.2L30.5,26.4L30.5,26.4L30.5,26.4z M31.8,31.9l-0.8,2.5l0-0.1L31,34.2l0-0.2l0-0.2l0-0.2l0-0.2l0-0.2l0.1-0.2l0.1-0.2
		l0.2-0.2l0.2-0.3L31.8,31.9L31.8,31.9L31.8,31.9z"/>
</g>
</svg>
